{
	"asset":{
		"generator":"Khronos glTF Blender I/O v3.5.30",
		"version":"2.0"
	},
	"scene":0,
	"scenes":[
		{
			"name":"Scene",
			"nodes":[
				0
			]
		}
	],
	"nodes":[
		{
			"mesh":0,
			"name":"pilot_medium_holo_LOD0_SEModelMesh"
		}
	],
	"materials":[
		{
			"doubleSided":true,
			"name":"mirage_base_head",
			"pbrMetallicRoughness":{
				"baseColorFactor":[
					0.800000011920929,
					0.800000011920929,
					0.800000011920929,
					1
				],
				"metallicFactor":0,
				"roughnessFactor":0.5
			}
		},
		{
			"doubleSided":true,
			"name":"mirage_base_body",
			"pbrMetallicRoughness":{
				"baseColorFactor":[
					0.800000011920929,
					0.800000011920929,
					0.800000011920929,
					1
				],
				"metallicFactor":0,
				"roughnessFactor":0.5
			}
		},
		{
			"doubleSided":true,
			"name":"mirage_base_gear",
			"pbrMetallicRoughness":{
				"baseColorFactor":[
					0.800000011920929,
					0.800000011920929,
					0.800000011920929,
					1
				],
				"metallicFactor":0,
				"roughnessFactor":0.5
			}
		},
		{
			"doubleSided":true,
			"name":"mirage_base_hair",
			"pbrMetallicRoughness":{
				"baseColorFactor":[
					0.800000011920929,
					0.800000011920929,
					0.800000011920929,
					1
				],
				"metallicFactor":0,
				"roughnessFactor":0.5
			}
		},
		{
			"doubleSided":true,
			"name":"wraith_base_eyecornea",
			"pbrMetallicRoughness":{
				"baseColorFactor":[
					0.800000011920929,
					0.800000011920929,
					0.800000011920929,
					1
				],
				"metallicFactor":0,
				"roughnessFactor":0.5
			}
		},
		{
			"doubleSided":true,
			"name":"wraith_base_eyeshadow",
			"pbrMetallicRoughness":{
				"baseColorFactor":[
					0.800000011920929,
					0.800000011920929,
					0.800000011920929,
					1
				],
				"metallicFactor":0,
				"roughnessFactor":0.5
			}
		}
	],
	"meshes":[
		{
			"name":"SEModelMesh",
			"primitives":[
				{
					"attributes":{
						"POSITION":0,
						"TEXCOORD_0":1,
						"TEXCOORD_1":2,
						"NORMAL":3
					},
					"indices":4,
					"material":0
				},
				{
					"attributes":{
						"POSITION":5,
						"TEXCOORD_0":6,
						"TEXCOORD_1":7,
						"NORMAL":8
					},
					"indices":9,
					"material":1
				},
				{
					"attributes":{
						"POSITION":10,
						"TEXCOORD_0":11,
						"TEXCOORD_1":12,
						"NORMAL":13
					},
					"indices":14,
					"material":2
				},
				{
					"attributes":{
						"POSITION":15,
						"TEXCOORD_0":16,
						"TEXCOORD_1":17,
						"NORMAL":18
					},
					"indices":19,
					"material":3
				},
				{
					"attributes":{
						"POSITION":20,
						"TEXCOORD_0":21,
						"TEXCOORD_1":22,
						"NORMAL":23
					},
					"indices":24,
					"material":4
				},
				{
					"attributes":{
						"POSITION":25,
						"TEXCOORD_0":26,
						"TEXCOORD_1":27,
						"NORMAL":28
					},
					"indices":29,
					"material":5
				}
			]
		}
	],
	"accessors":[
		{
			"bufferView":0,
			"componentType":5126,
			"count":4770,
			"max":[
				-0.023449672386050224,
				0.36541980504989624,
				1.7339369058609009
			],
			"min":[
				-0.2598693370819092,
				0.15616652369499207,
				1.4161349534988403
			],
			"type":"VEC3"
		},
		{
			"bufferView":1,
			"componentType":5126,
			"count":4770,
			"type":"VEC2"
		},
		{
			"bufferView":2,
			"componentType":5126,
			"count":4770,
			"type":"VEC2"
		},
		{
			"bufferView":3,
			"componentType":5126,
			"count":4770,
			"type":"VEC3"
		},
		{
			"bufferView":4,
			"componentType":5123,
			"count":25572,
			"type":"SCALAR"
		},
		{
			"bufferView":5,
			"componentType":5126,
			"count":6519,
			"max":[
				0.368284672498703,
				0.42694729566574097,
				1.5115067958831787
			],
			"min":[
				-0.3399484157562256,
				-0.0612732470035553,
				-0.011283231899142265
			],
			"type":"VEC3"
		},
		{
			"bufferView":6,
			"componentType":5126,
			"count":6519,
			"type":"VEC2"
		},
		{
			"bufferView":7,
			"componentType":5126,
			"count":6519,
			"type":"VEC2"
		},
		{
			"bufferView":8,
			"componentType":5126,
			"count":6519,
			"type":"VEC3"
		},
		{
			"bufferView":9,
			"componentType":5123,
			"count":28197,
			"type":"SCALAR"
		},
		{
			"bufferView":10,
			"componentType":5126,
			"count":19710,
			"max":[
				0.3299085199832916,
				0.5532289743423462,
				1.7296233177185059
			],
			"min":[
				-0.48925504088401794,
				0.0696476623415947,
				0.7396580576896667
			],
			"type":"VEC3"
		},
		{
			"bufferView":11,
			"componentType":5126,
			"count":19710,
			"type":"VEC2"
		},
		{
			"bufferView":12,
			"componentType":5126,
			"count":19710,
			"type":"VEC2"
		},
		{
			"bufferView":13,
			"componentType":5126,
			"count":19710,
			"type":"VEC3"
		},
		{
			"bufferView":14,
			"componentType":5123,
			"count":69048,
			"type":"SCALAR"
		},
		{
			"bufferView":15,
			"componentType":5126,
			"count":2352,
			"max":[
				-0.04675211012363434,
				0.35402658581733704,
				1.7693678140640259
			],
			"min":[
				-0.25871366262435913,
				0.1758614331483841,
				1.6160640716552734
			],
			"type":"VEC3"
		},
		{
			"bufferView":16,
			"componentType":5126,
			"count":2352,
			"type":"VEC2"
		},
		{
			"bufferView":17,
			"componentType":5126,
			"count":2352,
			"type":"VEC2"
		},
		{
			"bufferView":18,
			"componentType":5126,
			"count":2352,
			"type":"VEC3"
		},
		{
			"bufferView":19,
			"componentType":5123,
			"count":11505,
			"type":"SCALAR"
		},
		{
			"bufferView":20,
			"componentType":5126,
			"count":530,
			"max":[
				-0.07550384104251862,
				0.2353270947933197,
				1.6549330949783325
			],
			"min":[
				-0.16022741794586182,
				0.16949261724948883,
				1.6085411310195923
			],
			"type":"VEC3"
		},
		{
			"bufferView":21,
			"componentType":5126,
			"count":530,
			"type":"VEC2"
		},
		{
			"bufferView":22,
			"componentType":5126,
			"count":530,
			"type":"VEC2"
		},
		{
			"bufferView":23,
			"componentType":5126,
			"count":530,
			"type":"VEC3"
		},
		{
			"bufferView":24,
			"componentType":5123,
			"count":2760,
			"type":"SCALAR"
		},
		{
			"bufferView":25,
			"componentType":5126,
			"count":90,
			"max":[
				-0.07554122805595398,
				0.22208523750305176,
				1.642931342124939
			],
			"min":[
				-0.15013355016708374,
				0.16891725361347198,
				1.6167532205581665
			],
			"type":"VEC3"
		},
		{
			"bufferView":26,
			"componentType":5126,
			"count":90,
			"type":"VEC2"
		},
		{
			"bufferView":27,
			"componentType":5126,
			"count":90,
			"type":"VEC2"
		},
		{
			"bufferView":28,
			"componentType":5126,
			"count":90,
			"type":"VEC3"
		},
		{
			"bufferView":29,
			"componentType":5123,
			"count":258,
			"type":"SCALAR"
		}
	],
	"bufferViews":[
		{
			"buffer":0,
			"byteLength":57240,
			"byteOffset":0,
			"target":34962
		},
		{
			"buffer":0,
			"byteLength":38160,
			"byteOffset":57240,
			"target":34962
		},
		{
			"buffer":0,
			"byteLength":38160,
			"byteOffset":95400,
			"target":34962
		},
		{
			"buffer":0,
			"byteLength":57240,
			"byteOffset":133560,
			"target":34962
		},
		{
			"buffer":0,
			"byteLength":51144,
			"byteOffset":190800,
			"target":34963
		},
		{
			"buffer":0,
			"byteLength":78228,
			"byteOffset":241944,
			"target":34962
		},
		{
			"buffer":0,
			"byteLength":52152,
			"byteOffset":320172,
			"target":34962
		},
		{
			"buffer":0,
			"byteLength":52152,
			"byteOffset":372324,
			"target":34962
		},
		{
			"buffer":0,
			"byteLength":78228,
			"byteOffset":424476,
			"target":34962
		},
		{
			"buffer":0,
			"byteLength":56394,
			"byteOffset":502704,
			"target":34963
		},
		{
			"buffer":0,
			"byteLength":236520,
			"byteOffset":559100,
			"target":34962
		},
		{
			"buffer":0,
			"byteLength":157680,
			"byteOffset":795620,
			"target":34962
		},
		{
			"buffer":0,
			"byteLength":157680,
			"byteOffset":953300,
			"target":34962
		},
		{
			"buffer":0,
			"byteLength":236520,
			"byteOffset":1110980,
			"target":34962
		},
		{
			"buffer":0,
			"byteLength":138096,
			"byteOffset":1347500,
			"target":34963
		},
		{
			"buffer":0,
			"byteLength":28224,
			"byteOffset":1485596,
			"target":34962
		},
		{
			"buffer":0,
			"byteLength":18816,
			"byteOffset":1513820,
			"target":34962
		},
		{
			"buffer":0,
			"byteLength":18816,
			"byteOffset":1532636,
			"target":34962
		},
		{
			"buffer":0,
			"byteLength":28224,
			"byteOffset":1551452,
			"target":34962
		},
		{
			"buffer":0,
			"byteLength":23010,
			"byteOffset":1579676,
			"target":34963
		},
		{
			"buffer":0,
			"byteLength":6360,
			"byteOffset":1602688,
			"target":34962
		},
		{
			"buffer":0,
			"byteLength":4240,
			"byteOffset":1609048,
			"target":34962
		},
		{
			"buffer":0,
			"byteLength":4240,
			"byteOffset":1613288,
			"target":34962
		},
		{
			"buffer":0,
			"byteLength":6360,
			"byteOffset":1617528,
			"target":34962
		},
		{
			"buffer":0,
			"byteLength":5520,
			"byteOffset":1623888,
			"target":34963
		},
		{
			"buffer":0,
			"byteLength":1080,
			"byteOffset":1629408,
			"target":34962
		},
		{
			"buffer":0,
			"byteLength":720,
			"byteOffset":1630488,
			"target":34962
		},
		{
			"buffer":0,
			"byteLength":720,
			"byteOffset":1631208,
			"target":34962
		},
		{
			"buffer":0,
			"byteLength":1080,
			"byteOffset":1631928,
			"target":34962
		},
		{
			"buffer":0,
			"byteLength":516,
			"byteOffset":1633008,
			"target":34963
		}
	],
	"buffers":[
		{
			"byteLength":1633524,
			"uri":"scene.bin"
		}
	]
}
